<?xml version="1.0" standalone="no"?>
<!DOCTYPE svg PUBLIC "-//W3C//DTD SVG 20010904//EN"
 "http://www.w3.org/TR/2001/REC-SVG-20010904/DTD/svg10.dtd">
<svg version="1.0" xmlns="http://www.w3.org/2000/svg"
 width="577.000000pt" height="433.000000pt" viewBox="0 0 577.000000 433.000000"
 preserveAspectRatio="xMidYMid meet">

<g transform="translate(0.000000,433.000000) scale(0.100000,-0.100000)"
fill="#000000" stroke="none">
<path d="M3224 3473 c57 -202 32 -443 -67 -639 -46 -90 -126 -200 -153 -211
-8 -3 -32 2 -55 11 l-41 17 -232 -75 -231 -75 -28 -56 c-15 -30 -31 -55 -37
-55 -5 0 -28 7 -50 16 -23 9 -42 15 -44 13 -2 -2 43 -66 100 -141 58 -76 101
-138 97 -138 -4 0 -34 18 -66 40 l-57 40 5 -37 c2 -21 14 -110 26 -197 22
-169 20 -206 -11 -246 l-20 -25 -136 138 c-74 76 -137 137 -139 135 -2 -2 7
-84 20 -183 13 -99 36 -282 51 -406 l28 -227 356 -176 c195 -97 359 -176 364
-176 5 0 58 28 118 62 l109 62 -125 125 -126 126 18 59 c17 57 19 60 70 79
l53 20 48 -47 c38 -38 63 -52 126 -72 43 -13 79 -23 82 -21 2 2 -8 36 -22 74
-32 89 -34 158 -4 173 16 9 19 17 14 40 -6 25 -3 30 19 36 21 5 26 12 26 39 0
30 3 33 38 39 20 3 49 6 63 6 l25 0 -13 122 -13 122 29 31 30 30 -6 140 c-4
97 -11 147 -21 162 -13 21 -11 26 32 75 117 129 195 324 212 524 13 153 -39
372 -117 499 -17 28 -28 42 -25 33 32 -101 38 -317 13 -434 -23 -105 -71 -218
-132 -309 -56 -85 -128 -161 -142 -152 -4 3 -17 21 -27 41 l-19 36 30 57 c67
127 94 247 94 413 0 152 -28 274 -90 398 -39 77 -59 104 -47 65z"/>
</g>
</svg>
